<?xml version="1.0" encoding="UTF-8"?>
<svg id="Layer_1" data-name="Layer 1" xmlns="http://www.w3.org/2000/svg" viewBox="0 0 397.3735352 445.4526367">
  <defs>
    <style>
      .cls-1 {
        fill: #0075a5;
      }

      .cls-2 {
        isolation: isolate;
      }

      .cls-3 {
        fill: #22c55e;
      }
    </style>
  </defs>
  <g class="cls-2">
    <g class="cls-2">
      <path class="cls-1" d="M26.9169922,88.3808594H0v-45.9921875h103.8525391v45.9921875h-26.9169922v213.6401367H26.9169922V88.3808594Z"/>
      <path class="cls-1" d="M110.6254883,0h51.0791016v33.9111328h-51.0791016V0ZM111.0493164,42.3886719h50.0195312v259.6323242h-50.0195312V42.3886719Z"/>
      <path class="cls-1" d="M171.4477539,265.3549805c-1.6953125-47.8999023-1.4833984-74.1811523-1.4833984-96.2231445,0-25.8574219,0-57.4370117,1.2714844-86.6855469,1.0595703-26.7050781,10.5966797-42.6005859,32.6396484-42.6005859,13.7763672,0,27.3408203,9.1132812,29.8837891,28.8242188h1.0595703l-.8476562-13.9882812v-30.9438477h45.7802734v278.2832031h-11.2333984c-20.3466797,0-28.1884766-11.8691406-28.1884766-29.671875v-.4238281h-1.0595703c-3.1796875,21.1943359-14.6240234,32.6386719-33.2753906,32.6386719-25.6455078,0-33.6992188-20.3466797-34.546875-39.2089844ZM229.7319336,252.2143555V91.9838867c0-4.0268555-1.4833984-6.1464844-4.2382812-6.1464844-2.7558594,0-4.6630859,2.1196289-4.6630859,6.1464844l-.4238281,80.1152344c0,26.0688477,0,54.2578125.4238281,80.1152344,0,4.2382812,1.9072266,6.3583984,4.6630859,6.3583984,2.7548828,0,4.2382812-2.1201172,4.2382812-6.3583984Z"/>
      <path class="cls-1" d="M288.6459961,242.6762695v-33.0629883h50.2304688v41.1166992c0,3.3916016,1.4833984,6.3583984,4.4511719,6.3583984,2.5429688,0,4.0263672-2.1191406,4.0263672-6.3583984v-75.2397461h-1.0595703c-4.4511719,12.0805664-13.140625,18.6508789-27.1289062,18.6508789-19.2871094,0-30.5195312-13.3525391-30.5195312-36.4545898V42.3886719h50.2304688v99.4023438c0,4.0268555,1.4833984,6.3583984,4.0273438,6.3583984,2.5429688,0,4.4501953-2.331543,4.4501953-6.3583984V42.3886719h50.0195312v200.2875977c0,44.0849609-15.2607422,61.8876953-54.0458984,61.8876953-39.8457031,0-54.6816406-17.8027344-54.6816406-61.8876953Z"/>
    </g>
    <g class="cls-2">
      <path class="cls-3" d="M20.0737305,350.5844727H1.5942383v-32.4599609h71.2988281v32.4599609h-18.4794922v93.0751953H20.0737305v-93.0751953Z"/>
      <path class="cls-3" d="M77.8364258,412.4555664v-94.3310547h34.4853516v90.3847656c0,3.4082031,1.0185547,5.2011719,3.0556641,5.2011719,1.7460938,0,2.7646484-1.7929688,2.7646484-5.2011719v-90.3847656h34.3398438v125.5351562h-11.9316406c-9.7490234,0-15.4238281-5.9179688-15.4238281-16.6787109v-4.8417969h-.7275391c-2.4736328,14.7060547-10.3310547,22.9550781-22.8447266,22.9550781-14.9873047,0-23.7177734-11.8359375-23.7177734-32.6386719Z"/>
      <path class="cls-3" d="M159.1713867,318.1245117h11.9316406c9.7490234,0,15.4238281,5.9179688,15.4238281,16.6777344v4.8417969h.7275391c2.4736328-14.7050781,10.3310547-22.9550781,22.8447266-22.9550781,14.9873047,0,23.7177734,11.8369141,23.7177734,32.6396484v94.3310547h-34.4853516v-90.3857422c0-3.4072266-1.0185547-5.2001953-3.0556641-5.2001953-1.7460938,0-2.7646484,1.7929688-2.7646484,5.2001953v90.3857422h-34.3398438v-125.5351562Z"/>
      <path class="cls-3" d="M240.652832,407.074707c-.5820312-7.3525391-.8730469-17.3955078-.8730469-26.1826172,0-8.7880859.2910156-18.8300781.8730469-26.1835938,1.7460938-27.2587891,12.0771484-38.3779297,37.25-38.3779297,25.0273438,0,36.2314453,11.1191406,37.3955078,38.3779297.1455078,9.5048828,0,21.5205078-.2910156,32.8183594h-40.5966797l.2910156,29.7705078c0,3.5869141,1.0185547,5.3798828,2.9101562,5.3798828,1.7460938,0,2.7646484-1.9726562,2.9101562-5.3798828l.1455078-16.3193359h34.7763672l-.1455078,8.2490234c-1.3095703,25.4658203-12.3681641,36.2255859-37.3955078,36.2255859-24.8818359,0-35.5039062-11.1181641-37.25-38.3779297ZM280.6674805,344.1274414c0-3.2275391-1.1640625-5.2001953-2.9101562-5.2001953-1.8916016,0-3.0556641,1.7929688-3.0556641,5.2001953l-.1455078,18.8310547h6.2568359l-.1455078-18.8310547Z"/>
      <path class="cls-3" d="M319.9555664,408.8686523v-6.0976562h34.6308594v14.3466797c0,3.4072266,1.1640625,5.2011719,3.0556641,5.2011719,2.0371094,0,3.3466797-1.7939453,3.3466797-5.2011719v-3.765625c0-25.1074219-40.1601562-19.3681641-40.1601562-58.8222656,0-26.1835938,13.3867188-38.1992188,36.8134766-38.1992188,24.1542969,0,36.9589844,12.7333984,36.9589844,36.5849609v3.2275391h-33.6123047v-11.1181641c0-3.2285156-1.3095703-5.0214844-3.2011719-5.0214844-2.0371094,0-3.2011719,1.6132812-3.2011719,4.6621094v3.5869141c0,21.3408203,40.7421875,17.9335938,40.7421875,59.0019531,0,26.1826172-13.3867188,38.1982422-37.9775391,38.1982422-24.2998047,0-37.3955078-12.7324219-37.3955078-36.5839844Z"/>
    </g>
  </g>
</svg>